<svg id="glipy_copy_3" data-name="glipy copy 3" xmlns="http://www.w3.org/2000/svg" viewBox="0 0 64 64"><title>1</title><path d="M32,2A30,30,0,1,0,62,32,30.03661,30.03661,0,0,0,32,2ZM18.84,30.9c5.99-2.96,6.9.79,12.67-1.94,5.72-2.85,3.44-6.63,9.49-9.48a11.71922,11.71922,0,0,1,6.91-1.11.71914.71914,0,0,1-.15,1.43c-4.05-.72-8.99,1.6-10.56,5.4-1.8,4.22-7.39,7.04-11.81,6.08a8.8354,8.8354,0,0,0-5.93.91.67026.67026,0,0,1-.31.07A.72062.72062,0,0,1,18.84,30.9ZM44.92,22.07V44.86a.71274.71274,0,0,1-.71.71H38.49a.7127.7127,0,0,1-.71-.71V27.27a5.17878,5.17878,0,0,1,.68-1.4,7.3288,7.3288,0,0,1,3.78-3.82,9.457,9.457,0,0,1,1.79-.67A.71348.71348,0,0,1,44.92,22.07ZM36.35,30.6V44.86a.71488.71488,0,0,1-.72.71H29.92a.71274.71274,0,0,1-.71-.71V33.31a.6965.6965,0,0,1,.55-.69,15.11154,15.11154,0,0,0,5.43-2.58A.72187.72187,0,0,1,36.35,30.6Zm-8.57,2.99V44.86a.71493.71493,0,0,1-.72.71H21.35a.72141.72141,0,0,1-.72-.71V33.71a.71405.71405,0,0,1,.46-.67,7.15428,7.15428,0,0,1,4.08-.35,17.16592,17.16592,0,0,0,1.91.19A.71728.71728,0,0,1,27.78,33.59ZM51.29,50.46H42.75v.83a.715.715,0,0,1-1.43,0v-.83H33.49v.83a.715.715,0,0,1-1.43,0v-.83H24.23v.83a.71.71,0,1,1-1.42,0v-.83H14.26a.71488.71488,0,0,1-.71-.72V41.2h-.83a.715.715,0,0,1,0-1.43005h.83V31.94c-.6,0-1.51.16-1.54-.71a.70854.70854,0,0,1,.71-.72h.83V22.69h-.83a.71513.71513,0,0,1,0-1.43h.83V12.71a.715.715,0,0,1,1.43,0V21.26h.83a.71513.71513,0,0,1,0,1.43h-.83v7.82h.83a.71513.71513,0,0,1,0,1.43h-.83v7.83h.83a.71525.71525,0,0,1,0,1.43005h-.83v7.83h7.83V48.2a.71.71,0,1,1,1.42,0v.83h7.83V48.2a.71513.71513,0,0,1,1.43,0v.83h7.83V48.2a.70634.70634,0,0,1,.71-.71c.87.03.71.93.72,1.54h8.54A.71507.71507,0,0,1,51.29,50.46Z"/></svg>